<mxfile host="app.diagrams.net" modified="2023-04-28T14:30:36.219Z" agent="Mozilla/5.0 (Windows NT 10.0; Win64; x64) AppleWebKit/537.36 (KHTML, like Gecko) Chrome/112.0.0.0 Safari/537.36" etag="U3eJmi2JhRittyF9V0WV" version="21.2.1" type="google">
  <diagram id="XJ_sLz8pzvI0j26-ck4h" name="Página-1">
    <mxGraphModel grid="1" page="1" gridSize="10" guides="1" tooltips="1" connect="1" arrows="1" fold="1" pageScale="1" pageWidth="1169" pageHeight="827" math="0" shadow="0">
      <root>
        <mxCell id="0" />
        <mxCell id="1" parent="0" />
        <mxCell id="jFJUxOZB1hy8JuqwYfl7-133" style="edgeStyle=orthogonalEdgeStyle;rounded=0;orthogonalLoop=1;jettySize=auto;html=1;" edge="1" parent="1" source="jFJUxOZB1hy8JuqwYfl7-74" target="jFJUxOZB1hy8JuqwYfl7-132">
          <mxGeometry relative="1" as="geometry" />
        </mxCell>
        <mxCell id="jFJUxOZB1hy8JuqwYfl7-74" value="&lt;font style=&quot;font-size: 25px;&quot;&gt;Página principal&lt;/font&gt;" style="rounded=0;whiteSpace=wrap;html=1;" vertex="1" parent="1">
          <mxGeometry x="-759" y="-1570" width="190" height="100" as="geometry" />
        </mxCell>
        <mxCell id="jFJUxOZB1hy8JuqwYfl7-77" value="&lt;font style=&quot;font-size: 25px;&quot;&gt;Free Tour&lt;/font&gt;" style="rounded=0;whiteSpace=wrap;html=1;" vertex="1" parent="1">
          <mxGeometry x="-889" y="-1280" width="190" height="100" as="geometry" />
        </mxCell>
        <mxCell id="jFJUxOZB1hy8JuqwYfl7-130" style="edgeStyle=orthogonalEdgeStyle;rounded=0;orthogonalLoop=1;jettySize=auto;html=1;" edge="1" parent="1" source="jFJUxOZB1hy8JuqwYfl7-78" target="jFJUxOZB1hy8JuqwYfl7-125">
          <mxGeometry relative="1" as="geometry" />
        </mxCell>
        <mxCell id="jFJUxOZB1hy8JuqwYfl7-78" value="&lt;font style=&quot;font-size: 25px;&quot;&gt;Taller&lt;/font&gt;" style="rounded=0;whiteSpace=wrap;html=1;" vertex="1" parent="1">
          <mxGeometry x="-629" y="-1280" width="190" height="100" as="geometry" />
        </mxCell>
        <mxCell id="jFJUxOZB1hy8JuqwYfl7-79" value="&lt;font style=&quot;font-size: 25px;&quot;&gt;Tienda&lt;/font&gt;" style="rounded=0;whiteSpace=wrap;html=1;" vertex="1" parent="1">
          <mxGeometry x="-369" y="-1280" width="190" height="100" as="geometry" />
        </mxCell>
        <mxCell id="jFJUxOZB1hy8JuqwYfl7-80" value="&lt;font style=&quot;font-size: 25px;&quot;&gt;¿Quiénes somos?&lt;/font&gt;" style="rounded=0;whiteSpace=wrap;html=1;" vertex="1" parent="1">
          <mxGeometry x="-1149" y="-1280" width="190" height="100" as="geometry" />
        </mxCell>
        <mxCell id="jFJUxOZB1hy8JuqwYfl7-81" value="" style="shape=table;startSize=0;container=1;collapsible=0;childLayout=tableLayout;" vertex="1" parent="1">
          <mxGeometry x="-1100" y="-667" width="1020" height="1335" as="geometry" />
        </mxCell>
        <mxCell id="jFJUxOZB1hy8JuqwYfl7-82" value="" style="shape=tableRow;horizontal=0;startSize=0;swimlaneHead=0;swimlaneBody=0;strokeColor=inherit;top=0;left=0;bottom=0;right=0;collapsible=0;dropTarget=0;fillColor=none;points=[[0,0.5],[1,0.5]];portConstraint=eastwest;" vertex="1" parent="jFJUxOZB1hy8JuqwYfl7-81">
          <mxGeometry width="1020" height="167" as="geometry" />
        </mxCell>
        <mxCell id="jFJUxOZB1hy8JuqwYfl7-83" value="&lt;font style=&quot;font-size: 20px;&quot;&gt;&lt;b style=&quot;font-size: 20px;&quot;&gt;Label&lt;/b&gt;&lt;/font&gt;" style="shape=partialRectangle;html=1;whiteSpace=wrap;connectable=0;strokeColor=inherit;overflow=hidden;fillColor=none;top=0;left=0;bottom=0;right=0;pointerEvents=1;fontSize=20;" vertex="1" parent="jFJUxOZB1hy8JuqwYfl7-82">
          <mxGeometry width="250" height="167" as="geometry">
            <mxRectangle width="250" height="167" as="alternateBounds" />
          </mxGeometry>
        </mxCell>
        <mxCell id="jFJUxOZB1hy8JuqwYfl7-84" value="&lt;font style=&quot;font-size: 20px;&quot;&gt;&lt;b style=&quot;font-size: 20px;&quot;&gt;Scope note&lt;/b&gt;&lt;/font&gt;" style="shape=partialRectangle;html=1;whiteSpace=wrap;connectable=0;strokeColor=inherit;overflow=hidden;fillColor=none;top=0;left=0;bottom=0;right=0;pointerEvents=1;fontSize=20;" vertex="1" parent="jFJUxOZB1hy8JuqwYfl7-82">
          <mxGeometry x="250" width="770" height="167" as="geometry">
            <mxRectangle width="770" height="167" as="alternateBounds" />
          </mxGeometry>
        </mxCell>
        <mxCell id="jFJUxOZB1hy8JuqwYfl7-85" value="" style="shape=tableRow;horizontal=0;startSize=0;swimlaneHead=0;swimlaneBody=0;strokeColor=inherit;top=0;left=0;bottom=0;right=0;collapsible=0;dropTarget=0;fillColor=none;points=[[0,0.5],[1,0.5]];portConstraint=eastwest;" vertex="1" parent="jFJUxOZB1hy8JuqwYfl7-81">
          <mxGeometry y="167" width="1020" height="166" as="geometry" />
        </mxCell>
        <mxCell id="jFJUxOZB1hy8JuqwYfl7-86" value="&lt;font style=&quot;font-size: 20px;&quot;&gt;Quienes somos&lt;br style=&quot;font-size: 20px;&quot;&gt;(nosotros.html)&lt;/font&gt;" style="shape=partialRectangle;html=1;whiteSpace=wrap;connectable=0;strokeColor=inherit;overflow=hidden;fillColor=none;top=0;left=0;bottom=0;right=0;pointerEvents=1;fontSize=20;" vertex="1" parent="jFJUxOZB1hy8JuqwYfl7-85">
          <mxGeometry width="250" height="166" as="geometry">
            <mxRectangle width="250" height="166" as="alternateBounds" />
          </mxGeometry>
        </mxCell>
        <mxCell id="jFJUxOZB1hy8JuqwYfl7-87" value="Descripción e información sobre el taller y sus componentes. Formas de contactar con el mismo ( redes sociales, pequeño formulario, email y teléfono. Todo los elementos incluidos en el anterior &quot;¿Quienes somos?&quot; en el mismo texto de la página con hiperenlaces.&amp;nbsp;" style="shape=partialRectangle;html=1;whiteSpace=wrap;connectable=0;strokeColor=inherit;overflow=hidden;fillColor=none;top=0;left=0;bottom=0;right=0;pointerEvents=1;fontSize=20;" vertex="1" parent="jFJUxOZB1hy8JuqwYfl7-85">
          <mxGeometry x="250" width="770" height="166" as="geometry">
            <mxRectangle width="770" height="166" as="alternateBounds" />
          </mxGeometry>
        </mxCell>
        <mxCell id="jFJUxOZB1hy8JuqwYfl7-88" value="" style="shape=tableRow;horizontal=0;startSize=0;swimlaneHead=0;swimlaneBody=0;strokeColor=inherit;top=0;left=0;bottom=0;right=0;collapsible=0;dropTarget=0;fillColor=none;points=[[0,0.5],[1,0.5]];portConstraint=eastwest;" vertex="1" parent="jFJUxOZB1hy8JuqwYfl7-81">
          <mxGeometry y="333" width="1020" height="167" as="geometry" />
        </mxCell>
        <mxCell id="jFJUxOZB1hy8JuqwYfl7-89" value="Free Tour&lt;br&gt;(tour.html)" style="shape=partialRectangle;html=1;whiteSpace=wrap;connectable=0;strokeColor=inherit;overflow=hidden;fillColor=none;top=0;left=0;bottom=0;right=0;pointerEvents=1;fontSize=20;" vertex="1" parent="jFJUxOZB1hy8JuqwYfl7-88">
          <mxGeometry width="250" height="167" as="geometry">
            <mxRectangle width="250" height="167" as="alternateBounds" />
          </mxGeometry>
        </mxCell>
        <mxCell id="jFJUxOZB1hy8JuqwYfl7-90" value="Descripción e información sobre el free tour con imágenes e itinerario de este. Botón de reserva. Promoción del taller (al final del free tour se ofrece taller de pago que se pueda reservar ya)." style="shape=partialRectangle;html=1;whiteSpace=wrap;connectable=0;strokeColor=inherit;overflow=hidden;fillColor=none;top=0;left=0;bottom=0;right=0;pointerEvents=1;fontSize=20;" vertex="1" parent="jFJUxOZB1hy8JuqwYfl7-88">
          <mxGeometry x="250" width="770" height="167" as="geometry">
            <mxRectangle width="770" height="167" as="alternateBounds" />
          </mxGeometry>
        </mxCell>
        <mxCell id="jFJUxOZB1hy8JuqwYfl7-91" style="shape=tableRow;horizontal=0;startSize=0;swimlaneHead=0;swimlaneBody=0;strokeColor=inherit;top=0;left=0;bottom=0;right=0;collapsible=0;dropTarget=0;fillColor=none;points=[[0,0.5],[1,0.5]];portConstraint=eastwest;" vertex="1" parent="jFJUxOZB1hy8JuqwYfl7-81">
          <mxGeometry y="500" width="1020" height="167" as="geometry" />
        </mxCell>
        <mxCell id="jFJUxOZB1hy8JuqwYfl7-92" value="Taller&lt;br&gt;(taller.html)" style="shape=partialRectangle;html=1;whiteSpace=wrap;connectable=0;strokeColor=inherit;overflow=hidden;fillColor=none;top=0;left=0;bottom=0;right=0;pointerEvents=1;fontSize=20;" vertex="1" parent="jFJUxOZB1hy8JuqwYfl7-91">
          <mxGeometry width="250" height="167" as="geometry">
            <mxRectangle width="250" height="167" as="alternateBounds" />
          </mxGeometry>
        </mxCell>
        <mxCell id="jFJUxOZB1hy8JuqwYfl7-93" value="Descripción e información del taller condensando los anteriores apartados de la opción taller y visita taller del antiguo menú." style="shape=partialRectangle;html=1;whiteSpace=wrap;connectable=0;strokeColor=inherit;overflow=hidden;fillColor=none;top=0;left=0;bottom=0;right=0;pointerEvents=1;fontSize=20;" vertex="1" parent="jFJUxOZB1hy8JuqwYfl7-91">
          <mxGeometry x="250" width="770" height="167" as="geometry">
            <mxRectangle width="770" height="167" as="alternateBounds" />
          </mxGeometry>
        </mxCell>
        <mxCell id="jFJUxOZB1hy8JuqwYfl7-94" style="shape=tableRow;horizontal=0;startSize=0;swimlaneHead=0;swimlaneBody=0;strokeColor=inherit;top=0;left=0;bottom=0;right=0;collapsible=0;dropTarget=0;fillColor=none;points=[[0,0.5],[1,0.5]];portConstraint=eastwest;" vertex="1" parent="jFJUxOZB1hy8JuqwYfl7-81">
          <mxGeometry y="667" width="1020" height="167" as="geometry" />
        </mxCell>
        <mxCell id="jFJUxOZB1hy8JuqwYfl7-95" value="Tienda&lt;br&gt;(tienda.html)" style="shape=partialRectangle;html=1;whiteSpace=wrap;connectable=0;strokeColor=inherit;overflow=hidden;fillColor=none;top=0;left=0;bottom=0;right=0;pointerEvents=1;fontSize=20;" vertex="1" parent="jFJUxOZB1hy8JuqwYfl7-94">
          <mxGeometry width="250" height="167" as="geometry">
            <mxRectangle width="250" height="167" as="alternateBounds" />
          </mxGeometry>
        </mxCell>
        <mxCell id="jFJUxOZB1hy8JuqwYfl7-96" value="Pequeña pasarela e-commerce con todos los productos en forma de mosaico.&amp;nbsp;" style="shape=partialRectangle;html=1;whiteSpace=wrap;connectable=0;strokeColor=inherit;overflow=hidden;fillColor=none;top=0;left=0;bottom=0;right=0;pointerEvents=1;fontSize=20;" vertex="1" parent="jFJUxOZB1hy8JuqwYfl7-94">
          <mxGeometry x="250" width="770" height="167" as="geometry">
            <mxRectangle width="770" height="167" as="alternateBounds" />
          </mxGeometry>
        </mxCell>
        <mxCell id="jFJUxOZB1hy8JuqwYfl7-97" style="shape=tableRow;horizontal=0;startSize=0;swimlaneHead=0;swimlaneBody=0;strokeColor=inherit;top=0;left=0;bottom=0;right=0;collapsible=0;dropTarget=0;fillColor=none;points=[[0,0.5],[1,0.5]];portConstraint=eastwest;fontSize=20;" vertex="1" parent="jFJUxOZB1hy8JuqwYfl7-81">
          <mxGeometry y="834" width="1020" height="167" as="geometry" />
        </mxCell>
        <mxCell id="jFJUxOZB1hy8JuqwYfl7-98" value="&lt;font style=&quot;font-size: 20px;&quot;&gt;Enlace a redes sociales&lt;br&gt;(footer.html)&lt;br&gt;&lt;/font&gt;" style="shape=partialRectangle;html=1;whiteSpace=wrap;connectable=0;strokeColor=inherit;overflow=hidden;fillColor=none;top=0;left=0;bottom=0;right=0;pointerEvents=1;" vertex="1" parent="jFJUxOZB1hy8JuqwYfl7-97">
          <mxGeometry width="250" height="167" as="geometry">
            <mxRectangle width="250" height="167" as="alternateBounds" />
          </mxGeometry>
        </mxCell>
        <mxCell id="jFJUxOZB1hy8JuqwYfl7-99" value="&lt;font style=&quot;font-size: 20px;&quot;&gt;Hiperenlaces al perfil de artesanía nazarí en las distintas redes sociales.&lt;/font&gt;" style="shape=partialRectangle;html=1;whiteSpace=wrap;connectable=0;strokeColor=inherit;overflow=hidden;fillColor=none;top=0;left=0;bottom=0;right=0;pointerEvents=1;" vertex="1" parent="jFJUxOZB1hy8JuqwYfl7-97">
          <mxGeometry x="250" width="770" height="167" as="geometry">
            <mxRectangle width="770" height="167" as="alternateBounds" />
          </mxGeometry>
        </mxCell>
        <mxCell id="jFJUxOZB1hy8JuqwYfl7-100" style="shape=tableRow;horizontal=0;startSize=0;swimlaneHead=0;swimlaneBody=0;strokeColor=inherit;top=0;left=0;bottom=0;right=0;collapsible=0;dropTarget=0;fillColor=none;points=[[0,0.5],[1,0.5]];portConstraint=eastwest;fontSize=20;" vertex="1" parent="jFJUxOZB1hy8JuqwYfl7-81">
          <mxGeometry y="1001" width="1020" height="167" as="geometry" />
        </mxCell>
        <mxCell id="jFJUxOZB1hy8JuqwYfl7-101" value="&lt;font style=&quot;font-size: 20px;&quot;&gt;Contacto&lt;br&gt;(contacto.html)&lt;br&gt;&lt;/font&gt;" style="shape=partialRectangle;html=1;whiteSpace=wrap;connectable=0;strokeColor=inherit;overflow=hidden;fillColor=none;top=0;left=0;bottom=0;right=0;pointerEvents=1;" vertex="1" parent="jFJUxOZB1hy8JuqwYfl7-100">
          <mxGeometry width="250" height="167" as="geometry">
            <mxRectangle width="250" height="167" as="alternateBounds" />
          </mxGeometry>
        </mxCell>
        <mxCell id="jFJUxOZB1hy8JuqwYfl7-102" value="&lt;font style=&quot;font-size: 20px;&quot;&gt;Incluye todas las vías de comunicación y un breve formulario para mandar un mail (correo, teléfono y redes sociales).&lt;br&gt;&lt;/font&gt;" style="shape=partialRectangle;html=1;whiteSpace=wrap;connectable=0;strokeColor=inherit;overflow=hidden;fillColor=none;top=0;left=0;bottom=0;right=0;pointerEvents=1;" vertex="1" parent="jFJUxOZB1hy8JuqwYfl7-100">
          <mxGeometry x="250" width="770" height="167" as="geometry">
            <mxRectangle width="770" height="167" as="alternateBounds" />
          </mxGeometry>
        </mxCell>
        <mxCell id="jFJUxOZB1hy8JuqwYfl7-112" style="shape=tableRow;horizontal=0;startSize=0;swimlaneHead=0;swimlaneBody=0;strokeColor=inherit;top=0;left=0;bottom=0;right=0;collapsible=0;dropTarget=0;fillColor=none;points=[[0,0.5],[1,0.5]];portConstraint=eastwest;fontSize=20;" vertex="1" parent="jFJUxOZB1hy8JuqwYfl7-81">
          <mxGeometry y="1168" width="1020" height="167" as="geometry" />
        </mxCell>
        <mxCell id="jFJUxOZB1hy8JuqwYfl7-113" value="&lt;font style=&quot;font-size: 20px;&quot;&gt;Formulario&lt;br&gt;(formulario.html)&lt;br&gt;&lt;/font&gt;" style="shape=partialRectangle;html=1;whiteSpace=wrap;connectable=0;strokeColor=inherit;overflow=hidden;fillColor=none;top=0;left=0;bottom=0;right=0;pointerEvents=1;" vertex="1" parent="jFJUxOZB1hy8JuqwYfl7-112">
          <mxGeometry width="250" height="167" as="geometry">
            <mxRectangle width="250" height="167" as="alternateBounds" />
          </mxGeometry>
        </mxCell>
        <mxCell id="jFJUxOZB1hy8JuqwYfl7-114" value="&lt;font style=&quot;font-size: 20px;&quot;&gt;Dependiendo del la pagina desde la que se invoque, aparecerá un formulario distinto para cada caso.&lt;/font&gt;" style="shape=partialRectangle;html=1;whiteSpace=wrap;connectable=0;strokeColor=inherit;overflow=hidden;fillColor=none;top=0;left=0;bottom=0;right=0;pointerEvents=1;" vertex="1" parent="jFJUxOZB1hy8JuqwYfl7-112">
          <mxGeometry x="250" width="770" height="167" as="geometry">
            <mxRectangle width="770" height="167" as="alternateBounds" />
          </mxGeometry>
        </mxCell>
        <mxCell id="jFJUxOZB1hy8JuqwYfl7-115" value="&lt;font style=&quot;font-size: 20px;&quot;&gt;Formulario free tour&lt;/font&gt;" style="rounded=0;whiteSpace=wrap;html=1;" vertex="1" parent="1">
          <mxGeometry x="-899" y="-1080" width="190" height="90" as="geometry" />
        </mxCell>
        <mxCell id="jFJUxOZB1hy8JuqwYfl7-116" value="" style="endArrow=none;html=1;rounded=0;entryX=0.5;entryY=1;entryDx=0;entryDy=0;" edge="1" parent="1" target="jFJUxOZB1hy8JuqwYfl7-74">
          <mxGeometry width="50" height="50" relative="1" as="geometry">
            <mxPoint x="-664" y="-1370" as="sourcePoint" />
            <mxPoint x="-439" y="-1240" as="targetPoint" />
          </mxGeometry>
        </mxCell>
        <mxCell id="jFJUxOZB1hy8JuqwYfl7-117" value="" style="endArrow=classic;html=1;rounded=0;entryX=0.5;entryY=0;entryDx=0;entryDy=0;" edge="1" parent="1" target="jFJUxOZB1hy8JuqwYfl7-79">
          <mxGeometry width="50" height="50" relative="1" as="geometry">
            <mxPoint x="-669" y="-1370" as="sourcePoint" />
            <mxPoint x="-439" y="-1240" as="targetPoint" />
            <Array as="points">
              <mxPoint x="-274" y="-1370" />
            </Array>
          </mxGeometry>
        </mxCell>
        <mxCell id="jFJUxOZB1hy8JuqwYfl7-118" value="" style="endArrow=classic;html=1;rounded=0;entryX=0.582;entryY=-0.013;entryDx=0;entryDy=0;entryPerimeter=0;" edge="1" parent="1" target="jFJUxOZB1hy8JuqwYfl7-78">
          <mxGeometry width="50" height="50" relative="1" as="geometry">
            <mxPoint x="-659" y="-1370" as="sourcePoint" />
            <mxPoint x="-549" y="-1320" as="targetPoint" />
            <Array as="points">
              <mxPoint x="-519" y="-1370" />
            </Array>
          </mxGeometry>
        </mxCell>
        <mxCell id="jFJUxOZB1hy8JuqwYfl7-119" value="" style="endArrow=classic;html=1;rounded=0;entryX=0.465;entryY=-0.001;entryDx=0;entryDy=0;entryPerimeter=0;" edge="1" parent="1" target="jFJUxOZB1hy8JuqwYfl7-77">
          <mxGeometry width="50" height="50" relative="1" as="geometry">
            <mxPoint x="-669" y="-1370" as="sourcePoint" />
            <mxPoint x="-709" y="-1350" as="targetPoint" />
            <Array as="points">
              <mxPoint x="-799" y="-1370" />
            </Array>
          </mxGeometry>
        </mxCell>
        <mxCell id="jFJUxOZB1hy8JuqwYfl7-120" value="" style="endArrow=classic;html=1;rounded=0;entryX=0.466;entryY=-0.003;entryDx=0;entryDy=0;entryPerimeter=0;" edge="1" parent="1" target="jFJUxOZB1hy8JuqwYfl7-80">
          <mxGeometry width="50" height="50" relative="1" as="geometry">
            <mxPoint x="-799" y="-1370" as="sourcePoint" />
            <mxPoint x="-869" y="-1350" as="targetPoint" />
            <Array as="points">
              <mxPoint x="-1060" y="-1370" />
            </Array>
          </mxGeometry>
        </mxCell>
        <mxCell id="jFJUxOZB1hy8JuqwYfl7-122" value="" style="endArrow=classic;html=1;rounded=0;exitX=0.5;exitY=1;exitDx=0;exitDy=0;entryX=0.5;entryY=0;entryDx=0;entryDy=0;" edge="1" parent="1" target="jFJUxOZB1hy8JuqwYfl7-115">
          <mxGeometry width="50" height="50" relative="1" as="geometry">
            <mxPoint x="-804" y="-1180" as="sourcePoint" />
            <mxPoint x="-939" y="-1080" as="targetPoint" />
            <Array as="points">
              <mxPoint x="-804" y="-1140" />
            </Array>
          </mxGeometry>
        </mxCell>
        <mxCell id="jFJUxOZB1hy8JuqwYfl7-123" value="&lt;span style=&quot;font-size: 20px;&quot;&gt;Formulario + pasarela de pago&lt;br&gt;(Tienda)&lt;br&gt;&lt;/span&gt;" style="rounded=0;whiteSpace=wrap;html=1;" vertex="1" parent="1">
          <mxGeometry x="-364" y="-1080" width="180" height="90" as="geometry" />
        </mxCell>
        <mxCell id="jFJUxOZB1hy8JuqwYfl7-124" value="" style="endArrow=classic;html=1;rounded=0;entryX=0.5;entryY=0;entryDx=0;entryDy=0;exitX=0.5;exitY=1;exitDx=0;exitDy=0;" edge="1" parent="1" source="jFJUxOZB1hy8JuqwYfl7-79" target="jFJUxOZB1hy8JuqwYfl7-123">
          <mxGeometry width="50" height="50" relative="1" as="geometry">
            <mxPoint x="-529" y="-1140" as="sourcePoint" />
            <mxPoint x="-619" y="-1040" as="targetPoint" />
          </mxGeometry>
        </mxCell>
        <mxCell id="jFJUxOZB1hy8JuqwYfl7-125" value="&lt;span style=&quot;font-size: 20px;&quot;&gt;Formulario + pasarela de pago&lt;br&gt;(Taller)&lt;br&gt;&lt;/span&gt;" style="rounded=0;whiteSpace=wrap;html=1;" vertex="1" parent="1">
          <mxGeometry x="-624" y="-1080" width="180" height="90" as="geometry" />
        </mxCell>
        <mxCell id="jFJUxOZB1hy8JuqwYfl7-132" value="&lt;font style=&quot;font-size: 25px;&quot;&gt;RRSS y contacto&lt;/font&gt;" style="rounded=0;whiteSpace=wrap;html=1;" vertex="1" parent="1">
          <mxGeometry x="-209" y="-1570" width="190" height="100" as="geometry" />
        </mxCell>
      </root>
    </mxGraphModel>
  </diagram>
</mxfile>
